/* XPM */
static char *north_cat_xpm[] = {
"64 64 5 1",
"  c #A0D2EB",
". c #000000",
"X c #FFA500",
"o c #FFFFFF",
"O c #FFC0CB",
"                                                                ",
"                                                                ",
"                                                                ",
"                                                                ",
"                                                                ",
"                ........................                        ",
"              ..XXXXXXXXXXXXXXXXXXXXXX..                        ",
"            ..XXXXXXXXXXXXXXXXXXXXXXXX..                        ",
"           .XXXXXXXXXXXXXXXXXXXXXXXXXX.                         ",
"          .XXXXXXXXXXXXXX..XXXXXXXXXXXXX.                       ",
"         .XXXXXXXXXXXXX....XXXXXXXXXXXXX.                       ",
"        .XXXXXXXXXXX.........XXXXXXXXXXX.                       ",
"       .XXXXXXXXXX..o........o..XXXXXXXXX.       oooooo         ",
"      .XXXXXXXXX..oo..........oo..XXXXXXXX.    oo..             ",
"     .XXXXXXXXX.ooo............ooo.XXXXXXXX.  oo..              ",
"    .XXXXXXXXX.oooo.. ...... ..oooo.XXXXXXXXX. o...             ",
"   .XXXXXXXXXX.oooo....oooo....oooo.XXXXXXXXX. ..               ",
"  .XXXXXXXXXXX.oooo..oo..oo..oooo.XXXXXXXXXXX.                  ",
"  .XXXXXXXXXXX.ooo....oo..oo....ooo.XXXXXXXXXX.                 ",
" .XXXXXXXXXXXX..oo....oo..oo....oo..XXXXXXXXXXX.                ",
" .XXXXXXXXXXXXX....oo......oo....XXXXXXXXXXXXX.                 ",
" .XXXXXXXXXXXXXX...oo....oo...XXXXXXXXXXXXXXXX.                 ",
".XXXXXXXXXXXXXXXX...oo..oo...XXXXXXXXXXXXXXXXXX.                ",
".XXXXXXXXXXXXXXXXXX..oooo..XXXXXXXXXXXXXXXXXXXX.                ",
".XXXXXXXXXXXXXXXXXXXX......XXXXXXXXXXXXXXXXXXXX.                ",
".XXXXXXXXXXXXXXXXXXXXX.OO.XXXXXXXXXXXXXXXXXXXXX.                ",
".XXXXXXXXXXXXXXXXXXXXX.OO.XXXXXXXXXXXXXXXXXXXXX.                ",
".XXXXXXXXXXXXXXXXXXXXXX..XXXXXXXXXXXXXXXXXXXXXX.                ",
".XXXXXXXXXXXXXXXXXXXXXXXXXXXXXXXXXXXXXXXXXXXXXX.                ",
" .XXXXXXXXXXXXXXXXXXXXXXXXXXXXXXXXXXXXXXXXXXXX.                 ",
" .XXXXXXXXXXXXXXXXXXXXXXXXXXXXXXXXXXXXXXXXXXXX.                 ",
"  .XXXXXXXXXXXXXXXXXXXXXXXXXXXXXXXXXXXXXXXXXX.                  ",
"  .XXXXXXXXXXXXXXXXXXXXXXXXXXXXXXXXXXXXXXXXXX.                  ",
"   .XXXXXXXXXXXXXXXXXXXXXXXXXXXXXXXXXXXXXXXX.                   ",
"   .XXXXXXXXXXXXXXXXXXXXXXXXXXXXXXXXXXXXXXXX.                   ",
"    .XXXXXXXXXXXXXXXXXXXXXXXXXXXXXXXXXXXXXX.                    ",
"    .XXXXXXXXXXXXXXXXXXXXXXXXXXXXXXXXXXXXXX.                    ",
"     .XXXXXXXXXXXXXXXXXXXXXXXXXXXXXXXXXXXX.                     ",
"     .XXXXXXXXXXXXXXXXXXXXXXXXXXXXXXXXXXXX.                     ",
"      .XXXXXXXXXXXXXXXXXXXXXXXXXXXXXXXXXX.                      ",
"      .XXXXXXXXXXXXXXXXXXXXXXXXXXXXXXXXXX.                      ",
"       .XXXXXXXXXXXXXXXXXXXXXXXXXXXXXXXX.                       ",
"       .XXXXXXXXXXXXXXXXXXXXXXXXXXXXXXXX.                       ",
"        .XXXXXXXXXXXXXXXXXXXXXXXXXXXXXX.                        ",
"         ..XXXXXXXXXXXXXXXXXXXXXXXXXX..                         ",
"          ..XXXXXXXXXXXXXXXXXXXXXXXX..                          ",
"           ..........................                           ",
"                                                                ",
"                                                                ",
"                                                                ",
"                                                                ",
"                                                                ",
"                                                                ",
"                                                                ",
"                                                                ",
"                                                                ",
"                                                                ",
"                                                                ",
"                                                                ",
"                                                                ",
"                                                                ",
"                                                                ",
"                                                                ",
"                                                                "
};
